<svg id="Capa_1" enable-background="new 0 0 511.396 511.396" height="512" viewBox="0 0 511.396 511.396" width="512" xmlns="http://www.w3.org/2000/svg"><g><g><path d="m503.753 113.263v275.71c0 8.29-6.71 15-15 15h-466.11c-8.28 0-15-6.71-15-15v-275.71c0-8.28 6.72-15 15-15h466.11c8.29 0 15 6.72 15 15z" fill="#99e6fc"/><path d="m47.643 403.973h-25c-8.28 0-15-6.71-15-15v-275.71c0-8.28 6.72-15 15-15h25c-8.28 0-15 6.72-15 15v275.71c0 8.29 6.72 15 15 15z" fill="#62dbfb"/><path d="m210.57 368.763h90.261v99.652h-90.261z" fill="#a8d3d8"/><path d="m210.573 368.763h25v99.65h-25z" fill="#8ebac5"/><path d="m344.483 503.894h-177.565c-4.418 0-8-3.582-8-8v-28.348c0-4.418 3.582-8 8-8h177.565c4.418 0 8 3.582 8 8v28.348c0 4.418-3.581 8-8 8z" fill="#eef5f6"/><path d="m191.913 503.892h-25c-4.41 0-8-3.58-8-8v-28.35c0-4.41 3.59-8 8-8h25c-4.41 0-8 3.59-8 8v28.35c0 4.42 3.59 8 8 8z" fill="#cbe5e8"/><path d="m503.753 333.372v55.6c0 8.29-6.71 15-15 15h-466.11c-8.28 0-15-6.71-15-15v-55.6h.01c0 9.94 8.05 18 18 18h460.1c9.95 0 18-8.06 18-18z" fill="#eef5f6"/><path d="m47.643 403.973h-25c-8.28 0-15-6.71-15-15v-55.6h.01c0 9.94 8.05 18 18 18h6.99v37.6c0 8.29 6.72 15 15 15z" fill="#cbe5e8"/><path d="m441.313 19.503v267.22c0 6.62-5.38 12-12 12h-347.22c-6.63 0-12-5.38-12-12v-267.22c0-6.63 5.37-12 12-12h347.22c6.62 0 12 5.369 12 12z" fill="#eef5f6"/><path d="m441.313 19.503v32.97h-371.22v-32.97c0-6.63 5.37-12 12-12h347.22c6.62 0 12 5.369 12 12z" fill="#fe7ab6"/><circle cx="150.682" cy="175.597" fill="#fef48b" r="35.136"/><path d="m163.183 208.443c-3.88 1.48-8.1 2.29-12.5 2.29-19.41 0-35.14-15.73-35.14-35.14 0-19.4 15.73-35.13 35.14-35.13 4.4 0 8.62.81 12.5 2.29-13.23 5.03-22.64 17.84-22.64 32.84 0 15.009 9.41 27.82 22.64 32.85z" fill="#fee45a"/><path d="m391.851 121.228h-113.304c-2.209 0-4-1.791-4-4v-30.739c0-2.209 1.791-4 4-4h113.304c2.209 0 4 1.791 4 4v30.739c0 2.209-1.791 4-4 4z" fill="#bd80e1"/><path d="m303.543 121.233h-25c-2.21 0-4-1.8-4-4v-30.74c0-2.21 1.79-4 4-4h25c-2.21 0-4 1.79-4 4v30.74c0 2.2 1.79 4 4 4z" fill="#af66da"/><path d="m107.093 298.723h-25c-6.63 0-12-5.38-12-12v-267.22c0-6.63 5.37-12 12-12h25c-6.63 0-12 5.37-12 12v267.22c0 6.619 5.37 12 12 12z" fill="#cbe5e8"/><path d="m391.851 194.967h-113.304c-2.209 0-4-1.791-4-4v-30.739c0-2.209 1.791-4 4-4h113.304c2.209 0 4 1.791 4 4v30.739c0 2.209-1.791 4-4 4z" fill="#bbf49b"/><path d="m303.543 194.963h-25c-2.21 0-4-1.79-4-4v-30.73c0-2.21 1.79-4 4-4h25c-2.21 0-4 1.79-4 4v30.73c0 2.21 1.79 4 4 4z" fill="#9be69d"/><path d="m391.851 268.706h-113.304c-2.209 0-4-1.791-4-4v-30.739c0-2.209 1.791-4 4-4h113.304c2.209 0 4 1.791 4 4v30.739c0 2.209-1.791 4-4 4z" fill="#fe7ab6"/><g fill="#fe5ca7"><path d="m303.543 268.703h-25c-2.21 0-4-1.79-4-4v-30.74c0-2.2 1.79-4 4-4h25c-2.21 0-4 1.8-4 4v30.74c0 2.21 1.79 4 4 4z"/><path d="m107.093 7.503c-6.63 0-12 5.37-12 12v32.97h-25v-32.97c0-6.63 5.37-12 12-12z"/></g></g><g><path d="m503.748 148.876c4.143 0 7.5-3.357 7.5-7.5v-28.12c0-12.406-10.094-22.5-22.5-22.5h-39.941v-71.256c0-10.752-8.748-19.5-19.5-19.5h-347.217c-10.752 0-19.5 8.748-19.5 19.5v71.256h-39.942c-12.406 0-22.5 10.094-22.5 22.5v275.72c0 12.406 10.094 22.5 22.5 22.5h180.42v40.57h-36.15c-8.547 0-15.5 6.953-15.5 15.5v28.351c0 8.547 6.953 15.5 15.5 15.5h20.03c4.143 0 7.5-3.357 7.5-7.5s-3.357-7.5-7.5-7.5h-20.03c-.271 0-.5-.229-.5-.5v-28.351c0-.275.225-.5.5-.5h177.561c.275 0 .5.225.5.5v28.351c0 .271-.229.5-.5.5h-122.53c-4.143 0-7.5 3.357-7.5 7.5s3.357 7.5 7.5 7.5h122.53c8.547 0 15.5-6.953 15.5-15.5v-28.351c0-8.547-6.953-15.5-15.5-15.5h-36.15v-40.57h180.42c12.406 0 22.5-10.094 22.5-22.5v-212.6c0-4.143-3.357-7.5-7.5-7.5s-7.5 3.357-7.5 7.5v156.992c0 5.79-4.71 10.5-10.5 10.5h-460.1c-5.79 0-10.5-4.71-10.5-10.5v-220.112c0-4.136 3.364-7.5 7.5-7.5h39.941v180.962c0 10.752 8.748 19.5 19.5 19.5h347.217c10.752 0 19.5-8.748 19.5-19.5v-180.962h39.941c4.136 0 7.5 3.364 7.5 7.5v28.12c0 4.143 3.357 7.5 7.5 7.5zm-210.42 303.17h-75.26v-40.57h75.26zm-267.68-93.178h460.1c3.742 0 7.295-.817 10.5-2.271v32.379c0 4.136-3.364 7.5-7.5 7.5h-466.1c-4.136 0-7.5-3.364-7.5-7.5v-32.379c3.205 1.454 6.758 2.271 10.5 2.271zm56.442-343.868h347.217c2.481 0 4.5 2.019 4.5 4.5v25.473h-356.217v-25.473c0-2.481 2.018-4.5 4.5-4.5zm347.217 276.218h-347.217c-2.481 0-4.5-2.019-4.5-4.5v-226.745h356.217v226.745c0 2.481-2.019 4.5-4.5 4.5z"/><path d="m391.849 74.986h-113.305c-6.341 0-11.5 5.159-11.5 11.5v7.87h-16.436c-14.515 0-27.085 9.84-30.57 23.926l-12.339 49.813h-15.057c-3.555-19.944-21.012-35.137-41.962-35.137-23.51 0-42.636 19.126-42.636 42.636s19.126 42.636 42.636 42.636c20.95 0 38.406-15.192 41.962-35.135h15.058l12.339 49.812c3.485 14.089 16.056 23.929 30.57 23.929h16.436v7.868c0 6.341 5.159 11.5 11.5 11.5h113.305c6.341 0 11.5-5.159 11.5-11.5v-30.739c0-6.341-5.159-11.5-11.5-11.5h-113.306c-6.341 0-11.5 5.159-11.5 11.5v7.871h-16.436c-7.601 0-14.185-5.152-16.01-12.533l-11.446-46.207h43.891v7.869c0 6.341 5.159 11.5 11.5 11.5h113.305c6.341 0 11.5-5.159 11.5-11.5v-30.739c0-6.341-5.159-11.5-11.5-11.5h-113.304c-6.341 0-11.5 5.159-11.5 11.5v7.87h-43.891l11.446-46.209c1.825-7.378 8.409-12.53 16.01-12.53h16.436v7.869c0 6.341 5.159 11.5 11.5 11.5h113.305c6.341 0 11.5-5.159 11.5-11.5v-30.74c-.001-6.34-5.161-11.5-11.501-11.5zm-241.169 128.244c-15.238 0-27.636-12.397-27.636-27.636s12.397-27.636 27.636-27.636 27.636 12.397 27.636 27.636-12.398 27.636-27.636 27.636zm131.364 34.235h106.305v23.739h-106.305zm0-73.739h106.305v23.739h-106.305zm106.305-50h-106.305v-23.74h106.305z"/></g></g></svg>