<?xml version="1.0" standalone="no"?><svg xmlns="http://www.w3.org/2000/svg" viewBox="0 0 1440 320"><path fill="#0F4C75" fill-opacity="1" d="M0,32L10.9,42.7C21.8,53,44,75,65,85.3C87.3,96,109,96,131,85.3C152.7,75,175,53,196,80C218.2,107,240,181,262,218.7C283.6,256,305,256,327,229.3C349.1,203,371,149,393,144C414.5,139,436,181,458,213.3C480,245,502,267,524,272C545.5,277,567,267,589,240C610.9,213,633,171,655,149.3C676.4,128,698,128,720,122.7C741.8,117,764,107,785,133.3C807.3,160,829,224,851,224C872.7,224,895,160,916,133.3C938.2,107,960,117,982,122.7C1003.6,128,1025,128,1047,138.7C1069.1,149,1091,171,1113,160C1134.5,149,1156,107,1178,117.3C1200,128,1222,192,1244,181.3C1265.5,171,1287,85,1309,53.3C1330.9,21,1353,43,1375,74.7C1396.4,107,1418,149,1429,170.7L1440,192L1440,0L1429.1,0C1418.2,0,1396,0,1375,0C1352.7,0,1331,0,1309,0C1287.3,0,1265,0,1244,0C1221.8,0,1200,0,1178,0C1156.4,0,1135,0,1113,0C1090.9,0,1069,0,1047,0C1025.5,0,1004,0,982,0C960,0,938,0,916,0C894.5,0,873,0,851,0C829.1,0,807,0,785,0C763.6,0,742,0,720,0C698.2,0,676,0,655,0C632.7,0,611,0,589,0C567.3,0,545,0,524,0C501.8,0,480,0,458,0C436.4,0,415,0,393,0C370.9,0,349,0,327,0C305.5,0,284,0,262,0C240,0,218,0,196,0C174.5,0,153,0,131,0C109.1,0,87,0,65,0C43.6,0,22,0,11,0L0,0Z"></path></svg>